
<svg width="64" height="64" viewBox="0 0 64 64" fill="none" xmlns="http://www.w3.org/2000/svg">
  <!-- Blue background -->
  <rect width="64" height="64" rx="12" fill="#0EA5E9"/>
  
  <!-- C -->
  <path d="M18 24C18 22.8954 18.8954 22 20 22H28C29.1046 22 30 22.8954 30 24V26C30 27.1046 29.1046 28 28 28H24V40C24 41.1046 23.1046 42 22 42H20C18.8954 42 18 41.1046 18 40V24Z" fill="white"/>
  
  <!-- F -->
  <path d="M32 24C32 22.8954 32.8954 22 34 22H44C45.1046 22 46 22.8954 46 24V26C46 27.1046 45.1046 28 44 28H38V30H42C43.1046 30 44 30.8954 44 32V34C44 35.1046 43.1046 36 42 36H38V42H34C32.8954 42 32 41.1046 32 40V24Z" fill="white"/>
  
  <!-- T -->
  <path d="M46 24C46 22.8954 46.8954 22 48 22H56C57.1046 22 58 22.8954 58 24V26C58 27.1046 57.1046 28 56 28H54V40C54 41.1046 53.1046 42 52 42H50C48.8954 42 48 41.1046 48 40V28H46V24Z" fill="white"/>
</svg>
